<?xml version="1.0" encoding="UTF-8"?>
<svg version="1.1" xmlns="http://www.w3.org/2000/svg" width="291" height="293">
<path d="M0 0 C96.03 0 192.06 0 291 0 C291 96.69 291 193.38 291 293 C194.97 293 98.94 293 0 293 C0 196.31 0 99.62 0 0 Z " fill="#160808" transform="translate(0,0)"/>
<path d="M0 0 C1.95981812 -0.01279495 1.95981812 -0.01279495 3.95922852 -0.02584839 C5.40545666 -0.02514937 6.85168472 -0.02422631 8.2979126 -0.02310181 C9.82245208 -0.02908687 11.34698853 -0.03589237 12.871521 -0.04345703 C17.01220129 -0.06112941 21.15279893 -0.06581301 25.2935133 -0.0670886 C27.88196611 -0.06851039 30.47039792 -0.07278057 33.05884552 -0.07808304 C42.09362624 -0.09658943 51.12834793 -0.10475314 60.16314697 -0.10317993 C68.576946 -0.10197929 76.99048819 -0.12306479 85.40422225 -0.15466726 C92.63325509 -0.18084953 99.86220416 -0.19154637 107.09128404 -0.19026911 C111.40638393 -0.18975993 115.72125573 -0.19541859 120.03630829 -0.21662521 C124.09772799 -0.23603985 128.15870283 -0.23611028 132.22013855 -0.22159195 C133.7067912 -0.21950653 135.19347192 -0.22418888 136.6800766 -0.23631287 C146.62294739 -0.31211784 152.21960889 0.72557155 160.52545166 6.14242554 C164.89844738 10.51542126 164.90189001 15.85417246 164.91114807 21.76861572 C164.91497362 22.50313717 164.91879917 23.23765862 164.92274064 23.99443829 C164.93302257 26.44472002 164.92908769 28.89476531 164.92510986 31.34506226 C164.92945902 33.10634578 164.93464285 34.86762742 164.94059753 36.62890625 C164.95397734 41.40581662 164.9545673 46.18264782 164.95203424 50.95957327 C164.95096376 54.95056389 164.95584989 58.94153855 164.96063966 62.93252575 C164.97173148 72.34999801 164.97217417 81.76743038 164.96612549 91.18490601 C164.9600861 100.89268487 164.97239658 110.60031879 164.99369556 120.30807292 C165.01132263 128.64966056 165.01731114 136.99120209 165.01405782 145.33280766 C165.01224647 150.31181538 165.01486628 155.29071972 165.02877235 160.26971054 C165.04136393 164.95323821 165.03939398 169.63654027 165.02636147 174.32006454 C165.02399898 176.03569618 165.02671861 177.75134375 165.03498459 179.46695709 C165.0454819 181.81565384 165.03732808 184.16359773 165.02467346 186.51226807 C165.0248412 187.82448271 165.02500895 189.13669735 165.02518177 190.48867607 C164.58568339 194.92054376 163.36954082 198.1748662 161.65045166 202.26742554 C160.99045166 202.26742554 160.33045166 202.26742554 159.65045166 202.26742554 C159.38643838 202.88164557 159.1224251 203.49586559 158.85041142 204.12869835 C156.78041466 207.81812071 153.53706151 209.10672426 149.65045166 210.26742554 C144.71561348 210.83014489 139.79955706 210.79475764 134.84014893 210.75326538 C133.3461982 210.7554141 131.85224912 210.75929602 130.35830688 210.76477051 C126.31888262 210.77442562 122.27990357 210.75920793 118.24053311 210.73886442 C114.00201039 210.7212273 109.76350006 210.72481982 105.52494812 210.72558594 C98.40744634 210.72371563 91.29011558 210.70638997 84.17266846 210.67904663 C75.95995451 210.64761084 67.74742779 210.63705023 59.53465801 210.63851774 C50.76969405 210.63987207 42.00480164 210.62596957 33.23985934 210.60762453 C30.72406219 210.60337521 28.20827668 210.60194398 25.69247627 210.6011467 C21.72874688 210.59912729 17.76517265 210.5868325 13.8014946 210.56681442 C12.35236373 210.56100731 10.90321499 210.55850492 9.45407295 210.55966949 C-9.77367645 210.5692685 -9.77367645 210.5692685 -15.28704834 205.64242554 C-18.97551742 199.60674886 -19.59905469 193.65472769 -19.61024475 186.69104004 C-19.6140703 185.97255508 -19.61789585 185.25407013 -19.62183732 184.5138129 C-19.63207577 182.12968666 -19.62819279 179.7458054 -19.62420654 177.36166382 C-19.62855811 175.64273864 -19.63374273 173.9238154 -19.63969421 172.20489502 C-19.65304788 167.55193116 -19.65366692 162.89904871 -19.65113091 158.24606943 C-19.6500587 154.35457996 -19.65495098 150.46310679 -19.65973634 146.57162082 C-19.67081903 137.38703934 -19.67127594 128.20249875 -19.66522217 119.01791382 C-19.65918317 109.55893183 -19.67149436 100.10009862 -19.69279224 90.64114201 C-19.7104346 82.50500103 -19.71640543 74.3689073 -19.71315449 66.23274791 C-19.71134565 61.38001957 -19.71393794 56.52739736 -19.72786903 51.67468643 C-19.74048564 47.1093159 -19.73846715 42.54417652 -19.72545815 37.97880936 C-19.72310112 36.30916769 -19.72579552 34.63950955 -19.73408127 32.96988678 C-19.82740126 12.6937838 -19.82740126 12.6937838 -14.28704834 5.64242554 C-12.34954834 4.26742554 -12.34954834 4.26742554 -10.34954834 4.26742554 C-10.34954834 3.60742554 -10.34954834 2.94742554 -10.34954834 2.26742554 C-6.85366101 0.12324077 -4.06137588 0.01197943 0 0 Z " fill="#1C0909" transform="translate(74.34954833984375,37.732574462890625)"/>
<path d="M0 0 C0.75644806 -0.00570007 1.51289612 -0.01140015 2.29226685 -0.01727295 C3.87695966 -0.02662699 5.46167108 -0.03321811 7.04638672 -0.03710938 C9.43362121 -0.04682741 11.81999712 -0.07794727 14.20703125 -0.109375 C37.2452466 -0.26808799 37.2452466 -0.26808799 45.5703125 7.203125 C48.39619112 11.80197073 49.08630731 15.77124814 49.0078125 21.078125 C49.00096436 21.78412842 48.99411621 22.49013184 48.98706055 23.2175293 C48.80924315 28.98560611 47.94390327 32.55304042 44.5703125 37.203125 C41.17473496 39.91958703 40.0036369 40.203125 35.5703125 40.203125 C35.5703125 40.863125 35.5703125 41.523125 35.5703125 42.203125 C36.4365625 42.285625 37.3028125 42.368125 38.1953125 42.453125 C42.84846397 43.48715866 46.03913075 45.01504738 48.8359375 49.01171875 C52.53609244 56.1123682 52.60456454 63.87800912 51.09765625 71.63671875 C49.57018444 76.47523725 46.98367897 79.80111679 42.5703125 82.203125 C33.47285402 86.03804027 23.87165694 85.59744271 14.19995117 85.484375 C11.51011184 85.45315169 8.8208624 85.44338247 6.13085938 85.4375 C4.39061799 85.42832898 2.65038245 85.41795289 0.91015625 85.40625 C-0.27308983 85.39987518 -0.27308983 85.39987518 -1.48023987 85.39337158 C-7.2279667 85.32114598 -12.65554666 84.78053908 -18.4296875 84.203125 C-18.4296875 56.813125 -18.4296875 29.423125 -18.4296875 1.203125 C-12.19702404 0.57985865 -6.222628 0.03787663 0 0 Z " fill="#D92524" transform="translate(104.4296875,106.796875)"/>
<path d="M0 0 C1.95981812 -0.01279495 1.95981812 -0.01279495 3.95922852 -0.02584839 C5.40545666 -0.02514937 6.85168472 -0.02422631 8.2979126 -0.02310181 C9.82245208 -0.02908687 11.34698853 -0.03589237 12.871521 -0.04345703 C17.01220129 -0.06112941 21.15279893 -0.06581301 25.2935133 -0.0670886 C27.88196611 -0.06851039 30.47039792 -0.07278057 33.05884552 -0.07808304 C42.09362624 -0.09658943 51.12834793 -0.10475314 60.16314697 -0.10317993 C68.576946 -0.10197929 76.99048819 -0.12306479 85.40422225 -0.15466726 C92.63325509 -0.18084953 99.86220416 -0.19154637 107.09128404 -0.19026911 C111.40638393 -0.18975993 115.72125573 -0.19541859 120.03630829 -0.21662521 C124.09772799 -0.23603985 128.15870283 -0.23611028 132.22013855 -0.22159195 C133.7067912 -0.21950653 135.19347192 -0.22418888 136.6800766 -0.23631287 C146.62294739 -0.31211784 152.21960889 0.72557155 160.52545166 6.14242554 C164.89844738 10.51542126 164.90189001 15.85417246 164.91114807 21.76861572 C164.91497362 22.50313717 164.91879917 23.23765862 164.92274064 23.99443829 C164.93302257 26.44472002 164.92908769 28.89476531 164.92510986 31.34506226 C164.92945902 33.10634578 164.93464285 34.86762742 164.94059753 36.62890625 C164.95397734 41.40581662 164.9545673 46.18264782 164.95203424 50.95957327 C164.95096376 54.95056389 164.95584989 58.94153855 164.96063966 62.93252575 C164.97173148 72.34999801 164.97217417 81.76743038 164.96612549 91.18490601 C164.9600861 100.89268487 164.97239658 110.60031879 164.99369556 120.30807292 C165.01132263 128.64966056 165.01731114 136.99120209 165.01405782 145.33280766 C165.01224647 150.31181538 165.01486628 155.29071972 165.02877235 160.26971054 C165.04136393 164.95323821 165.03939398 169.63654027 165.02636147 174.32006454 C165.02399898 176.03569618 165.02671861 177.75134375 165.03498459 179.46695709 C165.0454819 181.81565384 165.03732808 184.16359773 165.02467346 186.51226807 C165.0248412 187.82448271 165.02500895 189.13669735 165.02518177 190.48867607 C164.58568339 194.92054376 163.36954082 198.1748662 161.65045166 202.26742554 C160.99045166 202.26742554 160.33045166 202.26742554 159.65045166 202.26742554 C159.38643838 202.88164557 159.1224251 203.49586559 158.85041142 204.12869835 C156.78041466 207.81812071 153.53706151 209.10672426 149.65045166 210.26742554 C144.71561348 210.83014489 139.79955706 210.79475764 134.84014893 210.75326538 C133.3461982 210.7554141 131.85224912 210.75929602 130.35830688 210.76477051 C126.31888262 210.77442562 122.27990357 210.75920793 118.24053311 210.73886442 C114.00201039 210.7212273 109.76350006 210.72481982 105.52494812 210.72558594 C98.40744634 210.72371563 91.29011558 210.70638997 84.17266846 210.67904663 C75.95995451 210.64761084 67.74742779 210.63705023 59.53465801 210.63851774 C50.76969405 210.63987207 42.00480164 210.62596957 33.23985934 210.60762453 C30.72406219 210.60337521 28.20827668 210.60194398 25.69247627 210.6011467 C21.72874688 210.59912729 17.76517265 210.5868325 13.8014946 210.56681442 C12.35236373 210.56100731 10.90321499 210.55850492 9.45407295 210.55966949 C-9.77367645 210.5692685 -9.77367645 210.5692685 -15.28704834 205.64242554 C-18.97551742 199.60674886 -19.59905469 193.65472769 -19.61024475 186.69104004 C-19.6140703 185.97255508 -19.61789585 185.25407013 -19.62183732 184.5138129 C-19.63207577 182.12968666 -19.62819279 179.7458054 -19.62420654 177.36166382 C-19.62855811 175.64273864 -19.63374273 173.9238154 -19.63969421 172.20489502 C-19.65304788 167.55193116 -19.65366692 162.89904871 -19.65113091 158.24606943 C-19.6500587 154.35457996 -19.65495098 150.46310679 -19.65973634 146.57162082 C-19.67081903 137.38703934 -19.67127594 128.20249875 -19.66522217 119.01791382 C-19.65918317 109.55893183 -19.67149436 100.10009862 -19.69279224 90.64114201 C-19.7104346 82.50500103 -19.71640543 74.3689073 -19.71315449 66.23274791 C-19.71134565 61.38001957 -19.71393794 56.52739736 -19.72786903 51.67468643 C-19.74048564 47.1093159 -19.73846715 42.54417652 -19.72545815 37.97880936 C-19.72310112 36.30916769 -19.72579552 34.63950955 -19.73408127 32.96988678 C-19.82740126 12.6937838 -19.82740126 12.6937838 -14.28704834 5.64242554 C-12.34954834 4.26742554 -12.34954834 4.26742554 -10.34954834 4.26742554 C-10.34954834 3.60742554 -10.34954834 2.94742554 -10.34954834 2.26742554 C-6.85366101 0.12324077 -4.06137588 0.01197943 0 0 Z M-11.69660091 10.9263649 C-15.82964254 18.32272478 -14.89394166 27.37451866 -14.83538818 35.58139038 C-14.83753658 37.33152551 -14.84141804 39.08165923 -14.84689331 40.83178711 C-14.85654822 45.56285166 -14.84133485 50.29353613 -14.82098722 55.02455473 C-14.80336995 59.97990681 -14.80694211 64.93524798 -14.80770874 69.890625 C-14.80583884 78.20427789 -14.78851134 86.51778428 -14.76116943 94.83139038 C-14.72965991 104.44785815 -14.71917554 114.06416593 -14.72064054 123.68068159 C-14.72186005 132.93542475 -14.71166274 142.19011578 -14.69505692 151.44484329 C-14.68799017 155.38338248 -14.68433029 159.32190323 -14.6832695 163.26044846 C-14.68126417 167.89145408 -14.66908367 172.52232484 -14.64893723 177.15328598 C-14.64308489 178.85488561 -14.64063697 180.55650075 -14.6417923 182.25811005 C-14.64277052 184.57543639 -14.63149474 186.89238231 -14.61697388 189.20965576 C-14.61362219 190.50783422 -14.6102705 191.80601269 -14.60681725 193.14352989 C-14.59000802 196.43165023 -14.59000802 196.43165023 -12.34954834 199.26742554 C-11.68954834 199.26742554 -11.02954834 199.26742554 -10.34954834 199.26742554 C-10.34954834 200.25742554 -10.34954834 201.24742554 -10.34954834 202.26742554 C-2.84234258 205.88201576 4.31299833 205.67308505 12.51177979 205.60800171 C14.01047753 205.60715442 15.50917651 205.60763257 17.00787354 205.60932922 C21.05696785 205.61018663 25.10579317 205.59260235 29.15482521 205.57160735 C33.39354701 205.55279794 37.63227562 205.55108676 41.87103271 205.54753113 C49.88900048 205.53822315 57.90684488 205.51362634 65.92475843 205.48348266 C75.05655448 205.44989972 84.18835655 205.43344286 93.32019901 205.41839635 C112.09701971 205.38707562 130.87372575 205.3343395 149.65045166 205.26742554 C149.65045166 204.60742554 149.65045166 203.94742554 149.65045166 203.26742554 C150.55795166 203.22617554 151.46545166 203.18492554 152.40045166 203.14242554 C155.83394821 202.55075305 155.83394821 202.55075305 157.82267189 199.67765808 C159.94742428 195.71334035 160.14868192 193.30541232 160.14492798 188.82870483 C160.14975681 188.10093936 160.15458564 187.37317389 160.1595608 186.62335491 C160.17079184 184.19574775 160.15354394 181.7692034 160.1362915 179.34164429 C160.13843838 177.59681921 160.14231757 175.85199553 160.14779663 174.10717773 C160.1574802 169.37573485 160.14219887 164.64467003 160.12189054 159.91327286 C160.10430522 154.95930674 160.10784492 150.00535205 160.10861206 145.05136108 C160.10673973 136.73236782 160.08938522 128.41352057 160.06207275 120.09457397 C160.03062271 110.47993259 160.02007662 100.8654511 160.02154386 91.25076199 C160.02289548 81.01039059 160.00900886 70.77008075 159.99065065 60.52972794 C159.98639059 57.58091243 159.98496864 54.63210688 159.98417282 51.68328857 C159.98216161 47.04738911 159.96993291 42.41162353 159.94984055 37.77576828 C159.94400618 36.07543126 159.94153665 34.37507884 159.94269562 32.67473221 C159.9436797 30.35172859 159.93234004 28.02909782 159.9178772 25.70614624 C159.91452551 24.4068367 159.91117382 23.10752716 159.90772057 21.7688446 C159.65132562 18.27932004 158.91104425 15.51744977 157.65045166 12.26742554 C156.99045166 12.26742554 156.33045166 12.26742554 155.65045166 12.26742554 C155.58857666 11.48367554 155.52670166 10.69992554 155.46295166 9.89242554 C154.93438887 7.09375029 154.93438887 7.09375029 152.49454212 6.12007713 C149.30244216 5.16309311 146.66459428 5.01009867 143.33250427 5 C142.05824081 4.99147003 140.78397736 4.98294006 139.47109985 4.97415161 C138.06628406 4.97485058 136.66146835 4.97577361 135.25665283 4.97689819 C133.77137413 4.97091121 132.28609854 4.96410527 130.80082703 4.95654297 C126.77177215 4.93889203 122.74280226 4.93418795 118.71371245 4.9329114 C116.19443554 4.93148861 113.67518015 4.92721658 111.15590858 4.92191696 C102.36102556 4.90341898 93.56620311 4.89524597 84.77130127 4.89682007 C76.58298926 4.89802109 68.39494101 4.87692605 60.20669574 4.84533274 C53.16872363 4.81914875 46.13083755 4.80845368 39.09281713 4.80973089 C34.89286576 4.81023994 30.69314878 4.80458835 26.49324608 4.78337479 C22.54097238 4.76395671 18.58915579 4.76389198 14.63686562 4.77840805 C13.19052586 4.78049292 11.74415723 4.77581442 10.29786682 4.76368713 C-2.00086699 4.38980775 -2.00086699 4.38980775 -11.69660091 10.9263649 Z " fill="#521113" transform="translate(74.34954833984375,37.732574462890625)"/>
<path d="M0 0 C8.91 0 17.82 0 27 0 C27 20.46 27 40.92 27 62 C37.89 62 48.78 62 60 62 C60 68.6 60 75.2 60 82 C50.99244823 83.12594397 50.99244823 83.12594397 47.51513672 83.16113281 C46.3438472 83.17554413 46.3438472 83.17554413 45.14889526 83.19024658 C43.92663742 83.1966214 43.92663742 83.1966214 42.6796875 83.203125 C41.81739532 83.20882507 40.95510315 83.21452515 40.06668091 83.22039795 C38.25654302 83.2297838 36.44638854 83.23635616 34.63623047 83.24023438 C31.87567656 83.24999761 29.11585035 83.28110415 26.35546875 83.3125 C24.58854604 83.31902614 22.82161807 83.32427814 21.0546875 83.328125 C20.23580048 83.3404718 19.41691345 83.3528186 18.57321167 83.36553955 C12.92058642 83.34363784 8.48632205 82.48632205 4.3125 78.3125 C-0.51515025 69.80664003 -0.39696721 61.86315936 -0.29296875 52.34375 C-0.2873649 50.8306114 -0.28309854 49.31746731 -0.28010559 47.80432129 C-0.26871877 43.84554693 -0.23930579 39.88710926 -0.20599365 35.9284668 C-0.17515886 31.87944084 -0.16157176 27.83035983 -0.14648438 23.78125 C-0.11442915 15.85399588 -0.06171273 7.92707877 0 0 Z " fill="#D72524" transform="translate(159,108)"/>
<path d="M0 0 C1.14019699 3.42059098 0.71476673 4.54387437 0 8 C-0.1000098 10.42615013 -0.14610344 12.85473289 -0.15821838 15.28291321 C-0.16315636 16.00589055 -0.16809434 16.72886789 -0.17318195 17.47375363 C-0.18851047 19.89045916 -0.19690493 22.30713822 -0.20532227 24.72387695 C-0.21490444 26.45858492 -0.22491473 28.19329056 -0.23532104 29.92799377 C-0.26233934 34.63414433 -0.28336556 39.34030487 -0.30332303 44.04648995 C-0.32520154 48.96592289 -0.35258111 53.88532512 -0.37937927 58.80473328 C-0.42928092 68.11894935 -0.47422914 77.4331825 -0.51740164 86.74743193 C-0.56679561 97.35196132 -0.62170573 107.95645989 -0.67708123 118.56095946 C-0.79086247 140.37394426 -0.89770992 162.18695848 -1 184 C-1.99 183.67 -2.98 183.34 -4 183 C-5.20035642 170.78979212 -5.04124353 158.66587432 -4.87890625 146.4140625 C-4.85455367 144.25931349 -4.83071286 142.10455864 -4.80735779 139.94979858 C-4.74502738 134.3241909 -4.6758208 128.69868881 -4.60510254 123.07318115 C-4.53395311 117.31446065 -4.46941672 111.55566628 -4.40429688 105.796875 C-4.27594418 94.53116878 -4.14031533 83.26556314 -4 72 C-4.99 71.67 -5.98 71.34 -7 71 C-7 55.49 -7 39.98 -7 24 C-6.34 24 -5.68 24 -5 24 C-4.67 18.72 -4.34 13.44 -4 8 C-3.67 8 -3.34 8 -3 8 C-2.690625 7.05125 -2.38125 6.1025 -2.0625 5.125 C-1 2 -1 2 0 0 Z M-7 176 C-6.01 176.495 -6.01 176.495 -5 177 C-5.33 179.31 -5.66 181.62 -6 184 C-6.33 184 -6.66 184 -7 184 C-7 181.36 -7 178.72 -7 176 Z " fill="#2B0B0B" transform="translate(56,48)"/>
<path d="M0 0 C5.28 0 10.56 0 16 0 C18.11323732 4.22647464 18.55685641 7.39774552 18 12 C17.34 13.98 16.68 15.96 16 18 C10.72 18 5.44 18 0 18 C0 12.06 0 6.12 0 0 Z " fill="#1E0A09" transform="translate(112,156)"/>
<path d="M0 0 C13.75 -0.125 13.75 -0.125 16 1 C16.02685938 3.14576637 16.04633088 5.29162645 16.0625 7.4375 C16.07410156 8.63246094 16.08570313 9.82742187 16.09765625 11.05859375 C16 14 16 14 15 15 C12.4672235 15.07320163 9.96896082 15.09227569 7.4375 15.0625 C4.983125 15.041875 2.52875 15.02125 0 15 C0 10.05 0 5.1 0 0 Z " fill="#1F0A0A" transform="translate(112,125)"/>
<path d="M0 0 C0.33 0 0.66 0 1 0 C1 27.39 1 54.78 1 83 C-0.485 83.495 -0.485 83.495 -2 84 C-2 82 -2 82 -1 81 C-1.33 81 -1.66 81 -2 81 C-2.04632972 71.02954961 -2.08187246 61.05912481 -2.10362434 51.08858871 C-2.11406387 46.45892282 -2.12822619 41.82933055 -2.15087891 37.19970703 C-2.17260121 32.73230515 -2.18456736 28.26497411 -2.18975449 23.7975235 C-2.19345134 22.09267308 -2.20067031 20.38782657 -2.21146011 18.68300629 C-2.22596692 16.29607244 -2.22797829 13.90943174 -2.22705078 11.52246094 C-2.23424133 10.81683517 -2.24143188 10.11120941 -2.24884033 9.38420105 C-2.23355161 5.7507774 -1.99145125 3.09046996 0 0 Z " fill="#2A0B0D" transform="translate(85,108)"/>
<path d="M0 0 C1.0236264 0.00212242 1.0236264 0.00212242 2.06793213 0.00428772 C4.23804184 0.00986541 6.4080467 0.02241371 8.578125 0.03515625 C10.05338392 0.04017414 11.52864447 0.04473654 13.00390625 0.04882812 C16.61205163 0.05897477 20.21997155 0.07855426 23.828125 0.09765625 C23.828125 4.71765625 23.828125 9.33765625 23.828125 14.09765625 C23.498125 14.09765625 23.168125 14.09765625 22.828125 14.09765625 C22.333125 8.15765625 22.333125 8.15765625 21.828125 2.09765625 C21.498125 2.42765625 21.168125 2.75765625 20.828125 3.09765625 C18.4524398 3.18605295 16.10603826 3.2129593 13.73046875 3.1953125 C12.66718102 3.19319008 12.66718102 3.19319008 11.58241272 3.19102478 C9.31010788 3.18541068 7.03790025 3.17285588 4.765625 3.16015625 C3.22851704 3.15514306 1.69140755 3.15057984 0.15429688 3.14648438 C-3.62113142 3.13543667 -7.39648671 3.11816266 -11.171875 3.09765625 C-11.171875 2.43765625 -11.171875 1.77765625 -11.171875 1.09765625 C-7.43877067 -0.09052343 -3.89695855 -0.01597114 0 0 Z " fill="#BB201F" transform="translate(195.171875,169.90234375)"/>
<path d="M0 0 C0.99 0 1.98 0 3 0 C2.625 1.9375 2.625 1.9375 2 4 C1.01 4.495 1.01 4.495 0 5 C0 6.98 0 8.96 0 11 C-0.99 11.495 -0.99 11.495 -2 12 C-1.34 12.66 -0.68 13.32 0 14 C-0.66 14 -1.32 14 -2 14 C-2 14.66 -2 15.32 -2 16 C-5.3 15.01 -8.6 14.02 -12 13 C-12 12.34 -12 11.68 -12 11 C-11.37351563 10.84144531 -10.74703125 10.68289062 -10.1015625 10.51953125 C-4.933386 9.23543188 -4.933386 9.23543188 -1.5 5.5 C-1.335 4.675 -1.17 3.85 -1 3 C-0.67 2.01 -0.34 1.02 0 0 Z " fill="#2A0C0B" transform="translate(152,136)"/>
<path d="M0 0 C15.35803849 -0.15600716 30.65759915 0.3194027 46 1 C46 1.33 46 1.66 46 2 C39.77090983 2.21861187 33.54140558 2.41362982 27.31103516 2.59204102 C25.19042139 2.65557818 23.06996394 2.72457147 20.94970703 2.79907227 C17.90681878 2.90505411 14.86391277 2.99157774 11.8203125 3.07421875 C10.86818878 3.11157639 9.91606506 3.14893402 8.93508911 3.18742371 C8.05432709 3.20767105 7.17356506 3.2279184 6.26611328 3.2487793 C5.48889923 3.27320602 4.71168518 3.29763275 3.91091919 3.32279968 C3.28031586 3.21627579 2.64971252 3.10975189 2 3 C1.34 2.01 0.68 1.02 0 0 Z " fill="#290B0B" transform="translate(84,105)"/>
<path d="M0 0 C1.65 0.99 3.3 1.98 5 3 C5 2.67 5 2.34 5 2 C6.66611905 1.957279 8.33382885 1.95936168 10 2 C10.33 2.33 10.66 2.66 11 3 C13.51880517 3.15988491 16.01342266 3.25934225 18.53515625 3.31640625 C19.66503212 3.3475779 19.66503212 3.3475779 20.81773376 3.37937927 C23.2325599 3.44495425 25.64749798 3.50379621 28.0625 3.5625 C29.69597529 3.6056777 31.3294391 3.64929173 32.96289062 3.69335938 C36.97514464 3.80064362 40.98751164 3.90188821 45 4 C45 4.33 45 4.66 45 5 C43.53191895 5.03758423 43.53191895 5.03758423 42.03417969 5.07592773 C38.39619296 5.17023983 34.75838657 5.27040203 31.12060547 5.37231445 C29.54740626 5.41557338 27.97416283 5.45725474 26.40087891 5.49731445 C24.13690885 5.55523662 21.87315949 5.61886714 19.609375 5.68359375 C18.90818542 5.70030624 18.20699585 5.71701874 17.48455811 5.73423767 C14.80969627 5.81502524 12.31713672 5.91738826 9.71972656 6.59399414 C8 7 8 7 4.875 5.8125 C2.00950474 4.00599212 1.0799689 3.13190982 0 0 Z " fill="#C32123" transform="translate(163,184)"/>
<path d="M0 0 C2.35694954 0.09031574 4.71153582 0.24688128 7.0625 0.4375 C8.35285156 0.53933594 9.64320312 0.64117187 10.97265625 0.74609375 C12.47119141 0.87177734 12.47119141 0.87177734 14 1 C14 1.33 14 1.66 14 2 C9.71 2 5.42 2 1 2 C1 6.95 1 11.9 1 17 C5.62 17 10.24 17 15 17 C15 17.33 15 17.66 15 18 C12.52076199 18.02685095 10.0418116 18.04676547 7.5625 18.0625 C6.85544922 18.07087891 6.14839844 18.07925781 5.41992188 18.08789062 C3.61306441 18.09653588 1.80612397 18.05220011 0 18 C-1.82116003 16.17883997 -1.1323508 13.69328236 -1.13671875 11.2734375 C-1.13285156 10.52320313 -1.12898438 9.77296875 -1.125 9 C-1.12886719 8.24976563 -1.13273437 7.49953125 -1.13671875 6.7265625 C-1.12661053 1.12661053 -1.12661053 1.12661053 0 0 Z " fill="#B12020" transform="translate(111,123)"/>
<path d="M0 0 C2 0 2 0 4.125 1.75 C6 4 6 4 6 8 C6.99 8.33 7.98 8.66 9 9 C8.01 9.33 7.02 9.66 6 10 C0.42857143 3.71428571 0.42857143 3.71428571 0 0 Z " fill="#350D0C" transform="translate(56,236)"/>
<path d="M0 0 C1.32 0 2.64 0 4 0 C4 0.66 4 1.32 4 2 C6.64 2 9.28 2 12 2 C8.36576791 4.32590854 5.22911669 4.16265833 1 4 C0.67 2.68 0.34 1.36 0 0 Z " fill="#CB2223" transform="translate(128,188)"/>
<path d="M0 0 C3 3 3 3 3.375 5.9375 C2.96940652 9.24984673 2.23079726 10.58330297 0 13 C-0.66 12.67 -1.32 12.34 -2 12 C-1.34 8.04 -0.68 4.08 0 0 Z " fill="#BA2122" transform="translate(130,160)"/>
<path d="M0 0 C0.66 0 1.32 0 2 0 C4.125 4.625 4.125 4.625 3 8 C2.34 8 1.68 8 1 8 C-1.125 3.375 -1.125 3.375 0 0 Z " fill="#350D0E" transform="translate(158,176)"/>
<path d="M0 0 C0.99 0 1.98 0 3 0 C2.625 1.9375 2.625 1.9375 2 4 C1.01 4.495 1.01 4.495 0 5 C-0.33 5.99 -0.66 6.98 -1 8 C-1.66 8 -2.32 8 -3 8 C-2.690625 7.236875 -2.38125 6.47375 -2.0625 5.6875 C-1.32106407 3.81210323 -0.63771783 1.91315348 0 0 Z " fill="#3B0E10" transform="translate(152,136)"/>
</svg>
